<mxfile host="65bd71144e">
    <diagram id="gylUmhWINsJHtXCuM6nx" name="第 1 页">
        <mxGraphModel dx="911" dy="4487" grid="1" gridSize="10" guides="1" tooltips="1" connect="1" arrows="1" fold="1" page="1" pageScale="1" pageWidth="1200" pageHeight="2920" math="0" shadow="0">
            <root>
                <mxCell id="0"/>
                <mxCell id="1" parent="0"/>
                <mxCell id="45" value="elsa-studio-workflow-editor-screen   renderCanvas" style="swimlane;startSize=20;horizontal=1;containerType=tree;labelBackgroundColor=none;fontColor=#FFFFFF;fontSize=14;" parent="1" vertex="1">
                    <mxGeometry x="170" y="-2860" width="800" height="980" as="geometry">
                        <mxRectangle x="300" y="-2870" width="240" height="30" as="alternateBounds"/>
                    </mxGeometry>
                </mxCell>
                <mxCell id="47" value="elsa-designer-tree" style="whiteSpace=wrap;html=1;treeFolding=1;treeMoving=1;newEdgeStyle={&quot;edgeStyle&quot;:&quot;elbowEdgeStyle&quot;,&quot;startArrow&quot;:&quot;none&quot;,&quot;endArrow&quot;:&quot;none&quot;};labelBackgroundColor=none;fontColor=#FFFFFF;fontSize=14;" parent="45" vertex="1">
                    <mxGeometry x="255" y="400" width="120" height="40" as="geometry"/>
                </mxCell>
                <mxCell id="82" value="x6-designer" style="whiteSpace=wrap;html=1;treeFolding=1;treeMoving=1;newEdgeStyle={&quot;edgeStyle&quot;:&quot;elbowEdgeStyle&quot;,&quot;startArrow&quot;:&quot;none&quot;,&quot;endArrow&quot;:&quot;none&quot;};labelBackgroundColor=none;fontColor=#FFFFFF;fontSize=14;" parent="45" vertex="1">
                    <mxGeometry x="425" y="400" width="120" height="40" as="geometry"/>
                </mxCell>
                <mxCell id="94" value="" style="edgeStyle=elbowEdgeStyle;elbow=vertical;html=1;rounded=1;curved=0;sourcePerimeterSpacing=0;targetPerimeterSpacing=0;startSize=6;endSize=6;entryX=0.5;entryY=0;entryDx=0;entryDy=0;fontSize=14;" parent="45" target="47" edge="1">
                    <mxGeometry relative="1" as="geometry">
                        <mxPoint x="540" y="220" as="sourcePoint"/>
                    </mxGeometry>
                </mxCell>
                <mxCell id="96" value="" style="edgeStyle=elbowEdgeStyle;elbow=vertical;html=1;rounded=1;curved=0;sourcePerimeterSpacing=0;targetPerimeterSpacing=0;startSize=6;endSize=6;exitX=0.5;exitY=1;exitDx=0;exitDy=0;entryX=0.5;entryY=0;entryDx=0;entryDy=0;fontSize=14;" parent="45" source="108" target="82" edge="1">
                    <mxGeometry relative="1" as="geometry">
                        <Array as="points">
                            <mxPoint x="430" y="310"/>
                        </Array>
                    </mxGeometry>
                </mxCell>
                <mxCell id="97" value="false" style="text;html=1;strokeColor=none;fillColor=none;align=center;verticalAlign=middle;whiteSpace=wrap;rounded=0;fontSize=14;" parent="45" vertex="1">
                    <mxGeometry x="375" y="280" width="60" height="30" as="geometry"/>
                </mxCell>
                <mxCell id="98" value="true" style="text;html=1;strokeColor=none;fillColor=none;align=center;verticalAlign=middle;whiteSpace=wrap;rounded=0;fontSize=14;" parent="45" vertex="1">
                    <mxGeometry x="485" y="350" width="60" height="30" as="geometry"/>
                </mxCell>
                <mxCell id="106" value="store" style="swimlane;startSize=20;horizontal=1;childLayout=treeLayout;horizontalTree=0;resizable=0;containerType=tree;fontSize=14;" parent="45" vertex="1">
                    <mxGeometry x="470" y="50" width="280" height="190" as="geometry"/>
                </mxCell>
                <mxCell id="107" value="state" style="whiteSpace=wrap;html=1;fontSize=14;" parent="106" vertex="1">
                    <mxGeometry x="90" y="40" width="100" height="40" as="geometry"/>
                </mxCell>
                <mxCell id="108" value="useX6Graphs: boolean" style="whiteSpace=wrap;html=1;fontSize=14;" parent="106" vertex="1">
                    <mxGeometry x="20" y="130" width="100" height="40" as="geometry"/>
                </mxCell>
                <mxCell id="109" value="" style="edgeStyle=elbowEdgeStyle;elbow=vertical;html=1;rounded=1;curved=0;sourcePerimeterSpacing=0;targetPerimeterSpacing=0;startSize=6;endSize=6;fontSize=14;" parent="106" source="107" target="108" edge="1">
                    <mxGeometry relative="1" as="geometry"/>
                </mxCell>
                <mxCell id="110" value="..." style="whiteSpace=wrap;html=1;fontSize=14;" parent="106" vertex="1">
                    <mxGeometry x="160" y="130" width="100" height="40" as="geometry"/>
                </mxCell>
                <mxCell id="111" value="" style="edgeStyle=elbowEdgeStyle;elbow=vertical;html=1;rounded=1;curved=0;sourcePerimeterSpacing=0;targetPerimeterSpacing=0;startSize=6;endSize=6;fontSize=14;" parent="106" source="107" target="110" edge="1">
                    <mxGeometry relative="1" as="geometry"/>
                </mxCell>
                <mxCell id="119" value="component state" style="swimlane;startSize=20;horizontal=1;childLayout=treeLayout;horizontalTree=0;resizable=0;containerType=tree;fontSize=14;" parent="45" vertex="1">
                    <mxGeometry x="80" y="50" width="330" height="190" as="geometry"/>
                </mxCell>
                <mxCell id="120" value="state" style="whiteSpace=wrap;html=1;fontSize=14;" parent="119" vertex="1">
                    <mxGeometry x="115" y="40" width="100" height="40" as="geometry"/>
                </mxCell>
                <mxCell id="121" value="&lt;div style=&quot;color: rgb(191, 199, 213); background-color: rgb(41, 45, 62); font-family: Menlo, Monaco, &amp;quot;Courier New&amp;quot;, monospace; line-height: 18px; font-size: 14px;&quot;&gt;workflowModel:&lt;/div&gt;&lt;div style=&quot;color: rgb(191, 199, 213); background-color: rgb(41, 45, 62); font-family: Menlo, Monaco, &amp;quot;Courier New&amp;quot;, monospace; line-height: 18px; font-size: 14px;&quot;&gt;WorkflowModel&lt;br style=&quot;font-size: 14px;&quot;&gt;&lt;/div&gt;" style="whiteSpace=wrap;html=1;fontSize=14;" parent="119" vertex="1">
                    <mxGeometry x="20" y="130" width="150" height="40" as="geometry"/>
                </mxCell>
                <mxCell id="122" value="" style="edgeStyle=elbowEdgeStyle;elbow=vertical;html=1;rounded=1;curved=0;sourcePerimeterSpacing=0;targetPerimeterSpacing=0;startSize=6;endSize=6;fontSize=14;" parent="119" source="120" target="121" edge="1">
                    <mxGeometry relative="1" as="geometry"/>
                </mxCell>
                <mxCell id="123" value="..." style="whiteSpace=wrap;html=1;fontSize=14;" parent="119" vertex="1">
                    <mxGeometry x="210" y="130" width="100" height="40" as="geometry"/>
                </mxCell>
                <mxCell id="124" value="" style="edgeStyle=elbowEdgeStyle;elbow=vertical;html=1;rounded=1;curved=0;sourcePerimeterSpacing=0;targetPerimeterSpacing=0;startSize=6;endSize=6;fontSize=14;" parent="119" source="120" target="123" edge="1">
                    <mxGeometry relative="1" as="geometry"/>
                </mxCell>
                <mxCell id="127" value="svg" style="whiteSpace=wrap;html=1;treeFolding=1;treeMoving=1;newEdgeStyle={&quot;edgeStyle&quot;:&quot;elbowEdgeStyle&quot;,&quot;startArrow&quot;:&quot;none&quot;,&quot;endArrow&quot;:&quot;none&quot;};labelBackgroundColor=none;fontColor=#FFFFFF;fontSize=14;" parent="45" vertex="1">
                    <mxGeometry x="255" y="490" width="120" height="40" as="geometry"/>
                </mxCell>
                <mxCell id="128" value="" style="endArrow=classic;html=1;exitX=0.5;exitY=1;exitDx=0;exitDy=0;entryX=0;entryY=0.5;entryDx=0;entryDy=0;fontSize=14;" parent="45" source="121" target="161" edge="1">
                    <mxGeometry width="50" height="50" relative="1" as="geometry">
                        <mxPoint x="150" y="390" as="sourcePoint"/>
                        <mxPoint x="310" y="580" as="targetPoint"/>
                        <Array as="points">
                            <mxPoint x="175" y="580"/>
                        </Array>
                    </mxGeometry>
                </mxCell>
                <mxCell id="131" value="render: activities &lt;br style=&quot;font-size: 14px;&quot;&gt;&amp;amp; connections" style="text;html=1;strokeColor=none;fillColor=none;align=center;verticalAlign=middle;whiteSpace=wrap;rounded=0;fontSize=14;" parent="45" vertex="1">
                    <mxGeometry x="110" y="390" width="60" height="80" as="geometry"/>
                </mxCell>
                <mxCell id="135" value="" style="edgeStyle=elbowEdgeStyle;elbow=vertical;html=1;rounded=1;curved=0;sourcePerimeterSpacing=0;targetPerimeterSpacing=0;startSize=6;endSize=6;entryX=0.5;entryY=0;entryDx=0;entryDy=0;fontSize=14;" parent="45" source="47" target="127" edge="1">
                    <mxGeometry relative="1" as="geometry">
                        <mxPoint x="840" y="-2650" as="sourcePoint"/>
                    </mxGeometry>
                </mxCell>
                <mxCell id="137" value="" style="edgeStyle=elbowEdgeStyle;elbow=vertical;html=1;rounded=1;curved=0;sourcePerimeterSpacing=0;targetPerimeterSpacing=0;startSize=6;endSize=6;entryX=0.5;entryY=0;entryDx=0;entryDy=0;fontSize=14;" parent="45" source="127" target="161" edge="1">
                    <mxGeometry relative="1" as="geometry">
                        <mxPoint x="615" y="-2420" as="sourcePoint"/>
                    </mxGeometry>
                </mxCell>
                <mxCell id="161" value="workflow svg " style="swimlane;startSize=20;horizontal=1;containerType=tree;fontSize=14;" parent="45" vertex="1">
                    <mxGeometry x="215" y="590" width="200" height="320" as="geometry"/>
                </mxCell>
                <mxCell id="162" value="" style="edgeStyle=elbowEdgeStyle;elbow=vertical;sourcePerimeterSpacing=0;targetPerimeterSpacing=0;startArrow=none;endArrow=none;rounded=0;curved=0;fontSize=14;" parent="161" source="163" target="164" edge="1">
                    <mxGeometry relative="1" as="geometry"/>
                </mxCell>
                <mxCell id="163" value="Start button" style="whiteSpace=wrap;html=1;treeFolding=1;treeMoving=1;newEdgeStyle={&quot;edgeStyle&quot;:&quot;elbowEdgeStyle&quot;,&quot;startArrow&quot;:&quot;none&quot;,&quot;endArrow&quot;:&quot;none&quot;};fillColor=#1ba1e2;fontColor=#ffffff;strokeColor=#006EAF;fontSize=14;" parent="161" vertex="1">
                    <mxGeometry x="40" y="60" width="120" height="40" as="geometry"/>
                </mxCell>
                <mxCell id="164" value="root activities" style="whiteSpace=wrap;html=1;treeFolding=1;treeMoving=1;newEdgeStyle={&quot;edgeStyle&quot;:&quot;elbowEdgeStyle&quot;,&quot;startArrow&quot;:&quot;none&quot;,&quot;endArrow&quot;:&quot;none&quot;};fontSize=14;" parent="161" vertex="1">
                    <mxGeometry x="40" y="140" width="120" height="40" as="geometry"/>
                </mxCell>
                <mxCell id="165" value="" style="edgeStyle=elbowEdgeStyle;elbow=vertical;sourcePerimeterSpacing=0;targetPerimeterSpacing=0;startArrow=none;endArrow=none;rounded=0;curved=0;fontSize=14;" parent="161" source="164" target="166" edge="1">
                    <mxGeometry relative="1" as="geometry">
                        <mxPoint x="410" y="-2370" as="sourcePoint"/>
                    </mxGeometry>
                </mxCell>
                <mxCell id="166" value="activities" style="whiteSpace=wrap;html=1;treeFolding=1;treeMoving=1;newEdgeStyle={&quot;edgeStyle&quot;:&quot;elbowEdgeStyle&quot;,&quot;startArrow&quot;:&quot;none&quot;,&quot;endArrow&quot;:&quot;none&quot;};fontSize=14;" parent="161" vertex="1">
                    <mxGeometry x="40" y="220" width="120" height="40" as="geometry"/>
                </mxCell>
                <mxCell id="167" value="outcome" style="text;strokeColor=none;fillColor=none;spacingLeft=4;spacingRight=4;overflow=hidden;rotatable=0;points=[[0,0.5],[1,0.5]];portConstraint=eastwest;fontSize=14;" parent="161" vertex="1">
                    <mxGeometry x="40" y="190" width="65" height="30" as="geometry"/>
                </mxCell>
                <mxCell id="170" value="" style="endArrow=classic;html=1;fontSize=14;" parent="161" edge="1">
                    <mxGeometry relative="1" as="geometry">
                        <mxPoint x="165" y="80" as="sourcePoint"/>
                        <mxPoint x="265" y="80" as="targetPoint"/>
                    </mxGeometry>
                </mxCell>
                <mxCell id="171" value="click" style="edgeLabel;resizable=0;html=1;align=center;verticalAlign=middle;fontSize=14;" parent="170" connectable="0" vertex="1">
                    <mxGeometry relative="1" as="geometry"/>
                </mxCell>
                <mxCell id="173" value="eventBus.emit (EventTypes.ShowActivityPicker)" style="text;html=1;strokeColor=none;fillColor=none;align=center;verticalAlign=middle;whiteSpace=wrap;rounded=0;fontSize=14;" parent="45" vertex="1">
                    <mxGeometry x="480" y="660" width="190" height="30" as="geometry"/>
                </mxCell>
                <mxCell id="212" value="" style="endArrow=classic;html=1;entryX=0.5;entryY=1;entryDx=0;entryDy=0;exitX=0;exitY=0.75;exitDx=0;exitDy=0;fontSize=14;" edge="1" parent="45" source="47" target="121">
                    <mxGeometry relative="1" as="geometry">
                        <mxPoint x="200" y="330" as="sourcePoint"/>
                        <mxPoint x="300" y="330" as="targetPoint"/>
                    </mxGeometry>
                </mxCell>
                <mxCell id="213" value="emit workflowChanged custom event" style="edgeLabel;resizable=0;html=1;align=center;verticalAlign=middle;fontSize=14;" connectable="0" vertex="1" parent="212">
                    <mxGeometry relative="1" as="geometry"/>
                </mxCell>
                <mxCell id="174" value="elas-activity-picker-modal" style="swimlane;startSize=20;horizontal=1;containerType=tree;fontSize=14;" parent="1" vertex="1">
                    <mxGeometry x="160" y="-1770" width="850" height="530" as="geometry"/>
                </mxCell>
                <mxCell id="175" value="" style="edgeStyle=elbowEdgeStyle;elbow=vertical;sourcePerimeterSpacing=0;targetPerimeterSpacing=0;startArrow=none;endArrow=none;rounded=0;curved=0;fontSize=14;" parent="174" source="176" target="177" edge="1">
                    <mxGeometry relative="1" as="geometry"/>
                </mxCell>
                <mxCell id="176" value="elas-modal-dialog" style="whiteSpace=wrap;html=1;treeFolding=1;treeMoving=1;newEdgeStyle={&quot;edgeStyle&quot;:&quot;elbowEdgeStyle&quot;,&quot;startArrow&quot;:&quot;none&quot;,&quot;endArrow&quot;:&quot;none&quot;};fontSize=14;" parent="174" vertex="1">
                    <mxGeometry x="350" y="320" width="120" height="40" as="geometry"/>
                </mxCell>
                <mxCell id="177" value="sidebar" style="whiteSpace=wrap;html=1;treeFolding=1;treeMoving=1;newEdgeStyle={&quot;edgeStyle&quot;:&quot;elbowEdgeStyle&quot;,&quot;startArrow&quot;:&quot;none&quot;,&quot;endArrow&quot;:&quot;none&quot;};fontSize=14;" parent="174" vertex="1">
                    <mxGeometry x="220" y="400" width="120" height="40" as="geometry"/>
                </mxCell>
                <mxCell id="178" value="store" style="swimlane;startSize=20;horizontal=1;childLayout=treeLayout;horizontalTree=0;resizable=0;containerType=tree;fontSize=14;" parent="174" vertex="1">
                    <mxGeometry x="450" y="30" width="343" height="190" as="geometry"/>
                </mxCell>
                <mxCell id="179" value="state" style="whiteSpace=wrap;html=1;fontSize=14;" parent="178" vertex="1">
                    <mxGeometry x="114.99999999999991" y="40" width="100" height="40" as="geometry"/>
                </mxCell>
                <mxCell id="180" value="&lt;span style=&quot;background-color: rgb(41, 45, 62); color: rgb(191, 199, 213); font-family: Menlo, Monaco, &amp;quot;Courier New&amp;quot;, monospace; font-size: 14px;&quot;&gt;activityDescriptors&lt;/span&gt;: Array" style="whiteSpace=wrap;html=1;fontSize=14;" parent="178" vertex="1">
                    <mxGeometry x="20" y="130" width="150" height="40" as="geometry"/>
                </mxCell>
                <mxCell id="181" value="" style="edgeStyle=elbowEdgeStyle;elbow=vertical;html=1;rounded=1;curved=0;sourcePerimeterSpacing=0;targetPerimeterSpacing=0;startSize=6;endSize=6;fontSize=14;" parent="178" source="179" target="180" edge="1">
                    <mxGeometry relative="1" as="geometry"/>
                </mxCell>
                <mxCell id="182" value="..." style="whiteSpace=wrap;html=1;fontSize=14;" parent="178" vertex="1">
                    <mxGeometry x="222.99999999999986" y="130" width="100" height="40" as="geometry"/>
                </mxCell>
                <mxCell id="183" value="" style="edgeStyle=elbowEdgeStyle;elbow=vertical;html=1;rounded=1;curved=0;sourcePerimeterSpacing=0;targetPerimeterSpacing=0;startSize=6;endSize=6;fontSize=14;" parent="178" source="179" target="182" edge="1">
                    <mxGeometry relative="1" as="geometry"/>
                </mxCell>
                <mxCell id="184" value="" style="edgeStyle=elbowEdgeStyle;html=1;elbow=vertical;startArrow=none;endArrow=none;fontSize=14;" parent="174" source="176" target="185" edge="1">
                    <mxGeometry relative="1" as="geometry"/>
                </mxCell>
                <mxCell id="185" value="search area" style="whiteSpace=wrap;html=1;treeFolding=1;treeMoving=1;newEdgeStyle={&quot;edgeStyle&quot;:&quot;elbowEdgeStyle&quot;,&quot;startArrow&quot;:&quot;none&quot;,&quot;endArrow&quot;:&quot;none&quot;};fontSize=14;" parent="174" vertex="1">
                    <mxGeometry x="350" y="400" width="120" height="40" as="geometry"/>
                </mxCell>
                <mxCell id="186" value="" style="edgeStyle=elbowEdgeStyle;html=1;elbow=vertical;startArrow=none;endArrow=none;fontSize=14;" parent="174" source="176" target="187" edge="1">
                    <mxGeometry relative="1" as="geometry"/>
                </mxCell>
                <mxCell id="187" value="activities picker" style="whiteSpace=wrap;html=1;treeFolding=1;treeMoving=1;newEdgeStyle={&quot;edgeStyle&quot;:&quot;elbowEdgeStyle&quot;,&quot;startArrow&quot;:&quot;none&quot;,&quot;endArrow&quot;:&quot;none&quot;};fontSize=14;" parent="174" vertex="1">
                    <mxGeometry x="480" y="400" width="120" height="40" as="geometry"/>
                </mxCell>
                <mxCell id="190" value="" style="endArrow=classic;html=1;entryX=0.5;entryY=0;entryDx=0;entryDy=0;exitX=0;exitY=1;exitDx=0;exitDy=0;fontSize=14;" parent="174" source="180" target="177" edge="1">
                    <mxGeometry relative="1" as="geometry">
                        <mxPoint x="210" y="220" as="sourcePoint"/>
                        <mxPoint x="310" y="220" as="targetPoint"/>
                    </mxGeometry>
                </mxCell>
                <mxCell id="191" value="activity category source" style="edgeLabel;resizable=0;html=1;align=center;verticalAlign=middle;fontSize=14;" parent="190" connectable="0" vertex="1">
                    <mxGeometry relative="1" as="geometry"/>
                </mxCell>
                <mxCell id="192" value="" style="endArrow=classic;html=1;entryX=0.5;entryY=0;entryDx=0;entryDy=0;exitX=0.5;exitY=1;exitDx=0;exitDy=0;fontSize=14;" parent="174" source="180" target="187" edge="1">
                    <mxGeometry relative="1" as="geometry">
                        <mxPoint x="600" y="240" as="sourcePoint"/>
                        <mxPoint x="410" y="440" as="targetPoint"/>
                    </mxGeometry>
                </mxCell>
                <mxCell id="193" value="activity display context source" style="edgeLabel;resizable=0;html=1;align=center;verticalAlign=middle;fontSize=14;" parent="192" connectable="0" vertex="1">
                    <mxGeometry relative="1" as="geometry"/>
                </mxCell>
                <mxCell id="194" value="" style="endArrow=classic;html=1;fontSize=14;" parent="174" edge="1">
                    <mxGeometry relative="1" as="geometry">
                        <mxPoint x="600" y="420" as="sourcePoint"/>
                        <mxPoint x="700" y="420" as="targetPoint"/>
                    </mxGeometry>
                </mxCell>
                <mxCell id="195" value="click" style="edgeLabel;resizable=0;html=1;align=center;verticalAlign=middle;fontSize=14;" parent="194" connectable="0" vertex="1">
                    <mxGeometry relative="1" as="geometry"/>
                </mxCell>
                <mxCell id="196" value="eventBus.emit (EventTypes.ActivityPicked)" style="text;html=1;strokeColor=none;fillColor=none;align=center;verticalAlign=middle;whiteSpace=wrap;rounded=0;fontSize=14;" parent="174" vertex="1">
                    <mxGeometry x="700" y="410" width="190" height="30" as="geometry"/>
                </mxCell>
                <mxCell id="188" value="" style="endArrow=classic;html=1;entryX=1;entryY=0.5;entryDx=0;entryDy=0;fontSize=14;" parent="1" target="180" edge="1">
                    <mxGeometry relative="1" as="geometry">
                        <mxPoint x="880" y="-1460" as="sourcePoint"/>
                        <mxPoint x="1170" y="-1590" as="targetPoint"/>
                    </mxGeometry>
                </mxCell>
                <mxCell id="189" value="get from server" style="edgeLabel;resizable=0;html=1;align=center;verticalAlign=middle;fontSize=14;" parent="188" connectable="0" vertex="1">
                    <mxGeometry relative="1" as="geometry">
                        <mxPoint x="40" y="-10" as="offset"/>
                    </mxGeometry>
                </mxCell>
                <mxCell id="198" value="" style="endArrow=classic;html=1;exitX=0.5;exitY=1;exitDx=0;exitDy=0;entryX=0.686;entryY=-0.002;entryDx=0;entryDy=0;entryPerimeter=0;fontSize=14;" parent="1" source="173" target="174" edge="1">
                    <mxGeometry relative="1" as="geometry">
                        <mxPoint x="730" y="-2070" as="sourcePoint"/>
                        <mxPoint x="830" y="-2070" as="targetPoint"/>
                    </mxGeometry>
                </mxCell>
                <mxCell id="199" value="show" style="edgeLabel;resizable=0;html=1;align=center;verticalAlign=middle;fontSize=14;" parent="198" connectable="0" vertex="1">
                    <mxGeometry relative="1" as="geometry"/>
                </mxCell>
                <mxCell id="200" value="elsa-activity-editor-modal" style="swimlane;startSize=20;horizontal=1;containerType=tree;fontSize=14;" parent="1" vertex="1">
                    <mxGeometry x="750" y="-1110" width="400" height="320" as="geometry"/>
                </mxCell>
                <mxCell id="201" value="" style="edgeStyle=elbowEdgeStyle;elbow=vertical;sourcePerimeterSpacing=0;targetPerimeterSpacing=0;startArrow=none;endArrow=none;rounded=0;curved=0;fontSize=14;" parent="200" source="202" target="203" edge="1">
                    <mxGeometry relative="1" as="geometry"/>
                </mxCell>
                <mxCell id="202" value="tabs&lt;br style=&quot;font-size: 14px;&quot;&gt;(default-[...categories]-common-storage)" style="whiteSpace=wrap;html=1;treeFolding=1;treeMoving=1;newEdgeStyle={&quot;edgeStyle&quot;:&quot;elbowEdgeStyle&quot;,&quot;startArrow&quot;:&quot;none&quot;,&quot;endArrow&quot;:&quot;none&quot;};fontSize=14;" parent="200" vertex="1">
                    <mxGeometry x="140" y="40" width="130" height="80" as="geometry"/>
                </mxCell>
                <mxCell id="203" value="form" style="whiteSpace=wrap;html=1;treeFolding=1;treeMoving=1;newEdgeStyle={&quot;edgeStyle&quot;:&quot;elbowEdgeStyle&quot;,&quot;startArrow&quot;:&quot;none&quot;,&quot;endArrow&quot;:&quot;none&quot;};fontSize=14;" parent="200" vertex="1">
                    <mxGeometry x="145" y="140" width="120" height="40" as="geometry"/>
                </mxCell>
                <mxCell id="207" value="" style="endArrow=classic;html=1;entryX=0;entryY=0.5;entryDx=0;entryDy=0;exitX=0;exitY=0.5;exitDx=0;exitDy=0;fontSize=14;" edge="1" parent="200" source="203" target="206">
                    <mxGeometry relative="1" as="geometry">
                        <mxPoint x="140" y="160" as="sourcePoint"/>
                        <mxPoint x="510" y="160" as="targetPoint"/>
                    </mxGeometry>
                </mxCell>
                <mxCell id="208" value="submit" style="edgeLabel;resizable=0;html=1;align=center;verticalAlign=middle;fontSize=14;" connectable="0" vertex="1" parent="207">
                    <mxGeometry relative="1" as="geometry"/>
                </mxCell>
                <mxCell id="206" value="eventBus" style="ellipse;whiteSpace=wrap;html=1;align=center;newEdgeStyle={&quot;edgeStyle&quot;:&quot;entityRelationEdgeStyle&quot;,&quot;startArrow&quot;:&quot;none&quot;,&quot;endArrow&quot;:&quot;none&quot;,&quot;segment&quot;:10,&quot;curved&quot;:1,&quot;sourcePerimeterSpacing&quot;:0,&quot;targetPerimeterSpacing&quot;:0};treeFolding=1;treeMoving=1;fontSize=14;" vertex="1" parent="200">
                    <mxGeometry x="-490" y="140" width="100" height="40" as="geometry"/>
                </mxCell>
                <mxCell id="204" value="" style="endArrow=classic;html=1;exitX=0.5;exitY=1;exitDx=0;exitDy=0;entryX=0.5;entryY=0;entryDx=0;entryDy=0;fontSize=14;" parent="1" source="196" target="200" edge="1">
                    <mxGeometry relative="1" as="geometry">
                        <mxPoint x="890" y="-1270" as="sourcePoint"/>
                        <mxPoint x="990" y="-1270" as="targetPoint"/>
                    </mxGeometry>
                </mxCell>
                <mxCell id="205" value="show" style="edgeLabel;resizable=0;html=1;align=center;verticalAlign=middle;fontSize=14;" parent="204" connectable="0" vertex="1">
                    <mxGeometry relative="1" as="geometry"/>
                </mxCell>
                <mxCell id="209" value="" style="endArrow=classic;html=1;exitX=0;exitY=0.5;exitDx=0;exitDy=0;entryX=0;entryY=0.75;entryDx=0;entryDy=0;fontSize=14;" edge="1" parent="1" source="206" target="47">
                    <mxGeometry relative="1" as="geometry">
                        <mxPoint x="850" y="-1010" as="sourcePoint"/>
                        <mxPoint x="570" y="-1910" as="targetPoint"/>
                        <Array as="points">
                            <mxPoint x="130" y="-1170"/>
                            <mxPoint x="130" y="-1800"/>
                            <mxPoint x="130" y="-2160"/>
                            <mxPoint x="130" y="-2430"/>
                        </Array>
                    </mxGeometry>
                </mxCell>
                <mxCell id="210" value="update activity" style="edgeLabel;resizable=0;html=1;align=center;verticalAlign=middle;fontSize=14;" connectable="0" vertex="1" parent="209">
                    <mxGeometry relative="1" as="geometry"/>
                </mxCell>
            </root>
        </mxGraphModel>
    </diagram>
</mxfile>